<svg width="207" height="207" viewBox="0 0 207 207" fill="none" xmlns="http://www.w3.org/2000/svg">
<rect width="206.794" height="206.794" rx="32.3116" fill="#2C1338"/>
<circle cx="103.441" cy="103.441" r="75.9758" fill="#2C1338"/>
<path d="M103.436 144.262C94.0174 144.258 84.9194 140.839 77.8306 134.637C70.7417 128.435 66.1432 119.872 64.8883 110.537C63.6334 101.202 65.8072 91.7285 71.0066 83.8746C76.2059 76.0208 84.0777 70.3195 93.1613 67.8288V79.1535C87.052 81.5485 81.9708 86.0016 78.795 91.7439C75.6193 97.4862 74.5483 104.157 75.767 110.605C76.9857 117.053 80.4176 122.873 85.4702 127.06C90.5227 131.247 96.8787 133.538 103.441 133.538C110.003 133.538 116.359 131.247 121.411 127.06C126.464 122.873 129.896 117.053 131.114 110.605C132.333 104.157 131.262 97.4862 128.086 91.7439C124.911 86.0016 119.829 81.5485 113.72 79.1535V67.8288C122.804 70.3197 130.677 76.0217 135.876 83.8765C141.075 91.7312 143.249 101.206 141.993 110.541C140.736 119.877 136.136 128.44 129.046 134.641C121.955 140.842 112.856 144.261 103.436 144.262ZM97.8524 54.8315H109.029V110.27H97.8524V54.8315ZM103.436 27.4648C88.4099 27.4657 73.7212 31.9223 61.2276 40.2712C48.734 48.62 38.9967 60.4862 33.2469 74.369C27.4972 88.2518 25.9932 103.528 28.9253 118.265C31.8573 133.003 39.0936 146.54 49.7192 157.165C60.3448 167.79 73.8824 175.026 88.6201 177.957C103.358 180.888 118.634 179.383 132.516 173.633C146.399 167.882 158.264 158.144 166.613 145.65C174.961 133.156 179.416 118.467 179.416 103.441C179.417 93.4628 177.452 83.5826 173.634 74.3643C169.816 65.1459 164.219 56.77 157.163 49.7148C150.108 42.6596 141.732 37.0634 132.513 33.2457C123.294 29.4281 113.414 27.4637 103.436 27.4648Z" fill="#E57CD8"/>
</svg>
