<svg width="136" height="46" viewBox="0 0 136 46" fill="none" xmlns="http://www.w3.org/2000/svg">
<g clip-path="url(#clip0_3685_29)">
<rect width="136" height="46" fill="#FDEAE2"/>
<path d="M110.902 16.5198C111.141 17.2777 111.774 17.6307 112.615 17.6307C113.456 17.6307 114.064 17.2362 114.064 16.551C114.064 16.0319 113.757 15.7516 113.01 15.5802L111.468 15.2273C110.232 14.9469 109.277 14.2877 109.277 12.8705C109.277 11.3132 110.569 10.2179 112.381 10.2179C114.349 10.2179 115.486 11.2561 115.766 12.7148H113.986C113.788 12.1386 113.3 11.6922 112.397 11.6922C111.582 11.6922 111.037 12.0867 111.037 12.7044C111.037 13.1976 111.359 13.4883 112.008 13.644L113.581 14.0074C114.982 14.3292 115.839 15.1286 115.839 16.4368C115.839 18.1083 114.463 19.1154 112.641 19.1154C110.72 19.1154 109.355 18.1602 109.064 16.5198H110.917H110.902Z" fill="#0F243F"/>
<path d="M133.933 10.3582V18.9753H132.136V15.3519H128.232V18.9753H126.436V10.3582H128.232V13.7842H132.136V10.3582H133.933Z" fill="#0F243F"/>
<path d="M112.516 36.3861C110.118 36.3861 108.446 34.5069 108.446 31.9374C108.446 29.3678 110.118 27.4886 112.516 27.4886C114.915 27.4886 116.602 29.3574 116.602 31.9374C116.602 34.5173 114.92 36.3861 112.516 36.3861ZM112.516 29.0875C111.156 29.0875 110.268 30.2503 110.268 31.9374C110.268 33.6245 111.151 34.7873 112.516 34.7873C113.882 34.7873 114.79 33.6245 114.79 31.9374C114.79 30.2503 113.892 29.0875 112.516 29.0875Z" fill="#0F243F"/>
<path d="M129.239 33.2559V36.2459H127.458V27.6288H130.968C132.796 27.6288 134 28.6099 134 30.4475C134 32.2852 132.79 33.2559 130.968 33.2559H129.239ZM130.854 29.155H129.239V31.7245H130.854C131.778 31.7245 132.23 31.1898 132.23 30.4475C132.23 29.7052 131.778 29.155 130.854 29.155Z" fill="#0F243F"/>
<path d="M5.90306 36.1732C7.59039 35.4049 8.65471 33.7179 8.65471 31.7764V11.9414H6.38071C3.48369 11.9414 1.76002 13.5195 0.072685 17.257H0L0.586672 10.5865H22.4389L23.0619 17.257H22.9892C21.3019 13.5195 19.5782 11.9414 16.6449 11.9414H14.4072V31.7712C14.4072 33.7127 15.4352 35.3998 17.1225 36.168V36.2407H5.90306V36.168V36.1732Z" fill="#0F243F"/>
<path d="M46.2588 36.1733V36.2459H34.5617V36.1733C36.654 35.405 37.4588 33.8996 36.4671 31.4079L35.5482 29.0979H27.1531L26.2756 31.4442C25.3204 33.9359 26.0212 35.405 28.1083 36.1733V36.2459H21.5459V36.1733C22.7556 35.2181 23.8563 33.5362 24.8479 31.0757L33.352 10H33.4974L42.3338 30.5254C43.7616 33.8633 44.9713 35.4361 46.2588 36.1681V36.1733ZM35.003 27.743L31.265 18.5081L27.7086 27.743H35.003Z" fill="#0F243F"/>
<path d="M69.8555 26.2739L69.0871 36.2459H48.1175V36.1732C49.8048 35.4049 50.8691 33.7179 50.8691 31.7764V15.056C50.8691 13.1146 49.8048 11.4275 48.1175 10.6592V10.5865H59.3369V10.6592C57.6496 11.4275 56.6216 13.1146 56.6216 15.056V34.8858H61.2423C66.1174 34.8858 68.2097 30.5617 69.7828 26.2739H69.8555Z" fill="#0F243F"/>
<path d="M97.1487 36.1732V36.2458H86.1161V36.1732C87.6944 35.218 87.3985 33.5361 86.1525 31.7764L80.1767 23.2371V31.7764C80.1767 33.7178 81.2047 35.4049 82.892 36.1732V36.2458H71.6726V36.1732C73.3599 35.4049 74.4242 33.7178 74.4242 31.7764V15.056C74.4242 13.1145 73.3599 11.4274 71.6726 10.6592V10.5865H82.892V10.6592C81.2047 11.4274 80.1767 13.1145 80.1767 15.056V22.2041L87.6581 15.3103C89.8594 13.2962 89.2364 11.9725 86.5938 10.654V10.5813H96.8943V10.654C95.6119 11.1679 92.9693 12.4864 89.4545 15.601L84.3977 20.0705L91.988 30.4423C94.0388 33.2662 95.7625 35.353 97.1591 36.1628L97.1487 36.1732Z" fill="#0F243F"/>
</g>
<defs>
<clipPath id="clip0_3685_29">
<rect width="136" height="46" fill="white"/>
</clipPath>
</defs>
</svg>
