<svg width="255" height="101" viewBox="0 0 255 101" fill="none" xmlns="http://www.w3.org/2000/svg">
<rect width="255" height="101" fill="#F7D8F3"/>
<path fill-rule="evenodd" clip-rule="evenodd" d="M8.34814 86.3076H72.3158V14H0V77.612L39.5137 38.1025H12.0526V26.0513H60.2632V74.2564H48.2106V46.4497L8.34814 86.3076Z" fill="#C73265"/>
<path fill-rule="evenodd" clip-rule="evenodd" d="M94.2734 14H85.0603L95.1381 28.8081L84.3685 44.1758H93.6243L99.9393 34.8347L106.384 44.1758H115.856L105 28.4207L114.991 14H105.648L99.9393 22.5663L94.2734 14ZM129.366 14H120.76V44.1758H127.809V25.063L135.595 41.1625H140.698L148.44 25.063L148.484 44.1758H155.491V14H146.883L138.147 31.6492L129.366 14ZM183.274 38.838L185.35 44.1758H193.785L181.069 14H172.937L159.919 44.1758H168.05L170.169 38.838H183.274ZM180.938 32.8114H172.548L176.786 22.0498L180.938 32.8114ZM212.01 35.8247L216.421 44.1758H225.375L219.06 34.3181C220.819 33.3998 222.159 32.1155 223.082 30.4654C224.005 28.8153 224.466 26.8567 224.466 24.5895C224.466 21.2318 223.363 18.6275 221.157 16.7765C218.951 14.9255 215.845 14 211.837 14H198.212V44.1758H206.127V35.8247H212.01ZM211.88 29.5399H206.127V20.2849H211.88C213.494 20.2849 214.742 20.6794 215.621 21.4686C216.5 22.2578 216.94 23.3842 216.94 24.8478C216.94 26.3688 216.5 27.5311 215.621 28.3346C214.742 29.1381 213.494 29.5399 211.88 29.5399ZM254.585 14H228.592V20.5001H237.588V44.1758H245.503V20.5001H254.585V14ZM92.9434 56.3508H85.0284V86.5264H105.789V79.8114H92.9434V56.3508ZM133.487 86.5264L131.411 81.1889H118.305L116.186 86.5264H108.054L121.073 56.3508H129.204L141.92 86.5264H133.487ZM170.612 59.9237C169.69 58.7758 168.385 57.8933 166.698 57.2763C165.011 56.6593 163.029 56.3508 160.751 56.3508H146.349V86.5264H161.314C163.678 86.5264 165.739 86.1895 167.499 85.5153C169.258 84.8404 170.612 83.8649 171.564 82.588C172.515 81.3106 172.992 79.8259 172.992 78.1327C172.992 76.181 172.437 74.5167 171.326 73.1391C170.216 71.7616 168.695 70.8863 166.763 70.5132C168.378 70.0828 169.654 69.2792 170.591 68.1026C171.528 66.926 171.997 65.5485 171.997 63.9701C171.997 62.4204 171.536 61.0716 170.612 59.9237ZM194.742 63.1092C192.911 62.5065 191.375 62.2052 190.135 62.2052C189.155 62.2052 188.384 62.3845 187.821 62.7432C187.259 63.102 186.978 63.6257 186.978 64.3145C186.978 64.9745 187.223 65.527 187.713 65.9718C188.203 66.4166 188.809 66.7753 189.53 67.048C190.251 67.3206 191.318 67.6721 192.731 68.1026C194.835 68.7053 196.573 69.3079 197.942 69.9106C199.312 70.5132 200.487 71.4387 201.467 72.6871C202.448 73.9354 202.938 75.5639 202.938 77.5729C202.938 79.5818 202.404 81.2967 201.338 82.717C200.271 84.1378 198.807 85.2068 196.947 85.9238C195.088 86.6415 193.019 87 190.741 87C188.232 87 185.731 86.5625 183.237 85.687C180.743 84.8121 178.587 83.6136 176.771 82.0927L179.842 75.9369C181.37 77.2861 183.179 78.3906 185.27 79.2516C187.36 80.1127 189.213 80.5429 190.828 80.5429C192.009 80.5429 192.939 80.3278 193.617 79.8976C194.295 79.4667 194.633 78.8359 194.633 78.0031C194.633 77.3144 194.381 76.7407 193.876 76.2816C193.372 75.8224 192.737 75.4567 191.974 75.1837C191.21 74.9114 190.135 74.5884 188.752 74.2152C186.676 73.6413 184.96 73.0602 183.604 72.4718C182.249 71.8835 181.089 70.9939 180.122 69.8029C179.156 68.612 178.674 67.0265 178.674 65.0462C178.674 63.1809 179.171 61.5451 180.166 60.1389C181.161 58.7328 182.573 57.6494 184.405 56.8889C186.236 56.1284 188.362 55.7481 190.784 55.7481C192.975 55.7481 195.138 56.0567 197.272 56.6737C199.406 57.2906 201.28 58.1157 202.895 59.1488L199.911 65.4337C198.295 64.4866 196.573 63.7118 194.742 63.1092ZM163.865 65.3476C163.865 66.2946 163.548 67.0336 162.914 67.5645C162.28 68.0954 161.414 68.3609 160.319 68.3609H154.264V62.5065H160.319C161.414 62.4778 162.28 62.7146 162.914 63.2168C163.548 63.719 163.865 64.4293 163.865 65.3476ZM120.684 75.162H129.075L124.923 64.4005L120.684 75.162ZM164.817 77.1427C164.817 78.1754 164.413 78.9793 163.606 79.5529C162.799 80.1272 161.703 80.414 160.319 80.414H154.264V74.0861H160.319C161.703 74.0574 162.799 74.3227 163.606 74.8824C164.413 75.4422 164.817 76.1954 164.817 77.1427Z" fill="#333333"/>
</svg>
